<svg xmlns="http://www.w3.org/2000/svg" width="260" height="73"><defs><clipPath id="a"><path d="M239.6 29.25h19.904v20.895H239.6z"/></clipPath></defs><path fill="#73953d" d="M0 0v73h37L12.815 47.6h17.378L8.363 24.675h15.132z"/><path fill="#c8dce1" d="M74 0L50.505 24.674h15.131l-21.83 22.927h17.379L37 73h37V15.891z"/><path fill="#231f20" d="M111.165 50l-4.685-7.288L101.835 50H94l8.683-13.197L94.485 24h7.835l4.16 6.933L110.64 24h7.836l-8.079 12.803L119 50zm27.937-.339h-6.288v-1.634c-1.481 1.395-3.403 2.113-5.766 2.113-4.365 0-6.888-2.83-6.888-6.18 0-3.707 3.004-5.94 7.849-5.94h4.205v-.318c0-1.555-.961-2.552-3.044-2.552-1.802 0-3.084.717-5.006 2.432l-3.203-4.345c2.683-2.711 5.407-3.987 9.05-3.987 5.606 0 9.09 3.11 9.09 8.85zm-6.898-7.454h-3.238c-1.159 0-1.839.558-1.839 1.515 0 .957.76 1.555 2.039 1.555 1.758 0 3.038-1.117 3.038-2.911zm23.23 7.933c-2.123 0-3.805-.598-5.126-1.834v8.531h-6.888V29.728h6.288v2.073c1.24-1.713 3.163-2.551 5.726-2.551 5.605 0 9.61 4.346 9.61 10.405 0 6.06-4.084 10.485-9.61 10.485m-1.362-14.67c-2.12 0-3.881 1.474-3.881 4.185 0 2.71 1.76 4.266 3.88 4.266 2.122 0 3.922-1.555 3.922-4.226 0-2.671-1.72-4.226-3.921-4.226m14.618-5.739h19.301v19.933h-6.888V35.471h-5.525v14.193h-6.888zm43.722-.48v20.412h-6.888v-8.97l-10.531 9.448h-2.203V29.728h6.888v8.97l10.532-9.448zm18.503 20.413l-6.808-9.966v9.966h-6.887V29.73h6.887v9.05l6.728-9.05h7.648l-7.047 9.13 7.528 10.804z"/><g clip-path="url(#a)"><path fill="#231f20" d="M250.534 29.252c4.125 0 7.329 2.034 8.97 5.342l-4.765 3.628c-1.081-1.714-2.323-2.67-4.125-2.67-2.403 0-3.964 1.713-3.964 4.145 0 2.432 1.561 4.146 3.964 4.146 1.802 0 3.044-.996 4.125-2.63l4.766 3.587c-1.642 3.31-4.846 5.343-8.971 5.343-5.967.12-11.053-4.665-10.932-10.446-.12-5.78 4.965-10.564 10.932-10.445"/></g></svg>