<svg xmlns="http://www.w3.org/2000/svg" width="318" height="86"><defs><clipPath id="a"><path d="M0 1.14h84.857v84.858H0z"/></clipPath><clipPath id="b"><path d="M.12.5h78.396v85.502H.12z"/></clipPath><clipPath id="c"><path d="M0 85h319V0H0z"/></clipPath></defs><g clip-path="url(#a)"><path fill="#c8dce1" d="M84.858 43.569c0 23.433-18.996 42.429-42.43 42.429C18.997 85.998 0 67.002 0 43.568 0 20.138 18.996 1.14 42.429 1.14c23.433 0 42.429 18.997 42.429 42.429"/></g><path fill="#130f0d" d="M43.348 55s-.29 4.203 5.692 5.614c5.98 1.409 10.449-1.814 19.256-1.814C77.006 58.8 81 60.637 81 60.637s-2.78 7.207-9.71 13.84C65.343 80.176 56.248 85.384 44.21 86c0 0-8.446-3.297-9.168-14.71C34.318 59.874 43.348 55 43.348 55M37 13.185l-4.382-8.953s-1.127-2.118-4.346-2.227c-3.218-.11-6.564 1.616-7.821 5.41-1.258 3.793.516 7.857.516 7.857L31.573 18z"/><g clip-path="url(#b)"><path fill="#442a1b" d="M47.352 51.94c5.252-2.826 15.418-4.21 21.2-4.163 5.781.045 5.796-1.792 6.204-4.529l-9.428-1.731s11.203-.654 11.385-1.25c.182-.596 1.274-5.457 1.73-7.567.455-2.11-1.365-3.624-1.365-3.624L63.966 23.16c-3.004-1.376-3.198-1.61-7.6-5.906-3.896-3.803-11.593-4.446-11.593-4.446L28.219 11.73l-4.424-9.087C22.54.13 15.594-1.03 12.379 4.067c-2.581 4.097-.306 9.774-.306 9.774S.303 25.657.127 41.13c-.044 3.909.053 10.927 2.76 17.914 5.063 13.058 17.271 26.96 40.8 26.96 0 0-5.665-5.467-6.752-12.481-1.202-7.758 2.505-17.326 10.417-21.583"/></g><path fill="#130f0d" d="M130.599 38.331H114.4V22H106v41h8.401V45.932H130.6V63h8.4V22h-8.401z"/><g clip-path="url(#c)"><path fill="#130f0d" d="M242 64h8V30h-8z"/></g><g clip-path="url(#c)"><path fill="#130f0d" d="M288.654 29.886h-9.308l-7.273 12.34h-5.64V21H258v42h8.433V49.166h5.355L279.596 63H289l-9.716-17.216z"/></g><g clip-path="url(#c)"><path fill="#130f0d" d="M162.105 29.007c12.771 0 12.895 11.43 12.895 11.43v12.725C175 60.86 168.232 64 160.735 64 153.765 64 146 62.448 146 53.414c0-9.777 8.84-10.316 13.127-10.316 4.286 0 7.566 1.282 7.566 1.282v-3.371s.337-5.125-5.69-5.125c-6.028 0-5.961 4.18-5.961 4.18h-7.837c0-11.732 13.296-11.057 13.296-11.057h1.604M160.5 58.031s6.249.523 6.249-4.836c0-5.28-6.249-4.916-6.249-4.916s-6.095-.445-6.095 4.88 6.095 4.872 6.095 4.872"/></g><g clip-path="url(#c)"><path fill="#130f0d" d="M182 42.78V63h8.243V42.78s-.181-6.515 7.637-6.515H200v-7.262h-3.485S182 28.44 182 42.781"/></g><g clip-path="url(#c)"><path fill="#130f0d" d="M220.052 29c14.714 0 13.941 11.485 13.941 11.485v12.948s.14 10.274-12.559 10.274c-3.367 0-6.005-.987-8.072-2.431V74h-8.356V40.34S204.26 29 220.052 29m-.341 27.67c6.433 0 5.877-5.919 5.877-5.919v-8.976s.509-5.589-5.98-5.589c-5.99 0-6.24 4.862-6.246 5.514v8.717c.011.99.35 6.253 6.349 6.253"/></g><g clip-path="url(#c)"><path fill="#130f0d" d="M247.594 19h-3.187c-1.875 0-3.407 1.575-3.407 3.5s1.532 3.5 3.407 3.5h3.187c1.874 0 3.406-1.575 3.406-3.5s-1.532-3.5-3.406-3.5"/></g><g clip-path="url(#c)"><path fill="#130f0d" d="M317.99 52.643c0-.633.196-4.619-4.262-7.195-1.94-1.12-4.896-1.881-8.94-2.337-3.69-.415-6.167-1.236-6.167-4.143 0-2.778 3.219-3.642 5.386-3.642 4.963 0 5.7 3.03 5.7 3.882v.85h8.043v-1.702S318.36 29 303.74 29c-14.259 0-13.336 10.676-13.336 10.676s-.814 8.704 11.552 9.959c7.128.722 7.762 2.813 7.75 4.563-.011 1.75-1.552 3.58-5.743 3.58-4.193 0-5.91-1.77-5.91-3.938v-.85h-8.043v.85s-.022.256 0 .685v.166h.01c.172 2.44 1.73 9.309 13.86 9.309 15.015 0 14.11-10.463 14.11-11.357"/></g></svg>