<svg xmlns="http://www.w3.org/2000/svg" width="257" height="157"><defs><clipPath id="a"><path d="M229.06 129.19h27.653v27.481H229.06z"/></clipPath></defs><path fill="#231f20" d="M17.125 130l-3.911 7.362h-.428L8.892 130H1.05l7.505 12.294L0 156h7.86l4.926-8.54h.428L18.14 156H26l-8.554-13.706L24.951 130zm32.651 6.872h.438l3.74 9.81h-7.919zM45.469 130L35 156h7.436l1.607-3.97h11.914l1.606 3.97H65l-10.47-26zm38.829 19.808v6.488H77.04V129.56h11.717c4.104 0 7.125.84 9.06 2.517 1.934 1.678 2.901 4.215 2.901 7.607 0 3.394-.967 5.93-2.902 7.607-1.934 1.678-4.955 2.517-9.059 2.517zm0-6.036h4.46c2.885 0 4.328-1.363 4.328-4.087 0-2.724-1.443-4.086-4.329-4.086h-4.46zm55.165 12.524h-7.258v-20.621h-11.047v20.62H113.9V129.56h25.563zm33.692-20.583l-1.418 3.821-7.632 16.762H153.6V129.56h7.259v16.761l-1.12 3.822h.728l1.417-3.822 7.65-16.761h10.506v26.736h-7.258v-16.762l1.1-3.821zm37.837-6.153h8.396l-10.076 13.182 10.58 13.554h-8.414l-10.04-13.051v13.05h-7.258V129.56h7.258v12.716z"/><g clip-path="url(#a)"><path fill="#231f20" d="M238.315 137.542c-1.082 1.392-1.623 3.188-1.623 5.389 0 2.199.54 3.995 1.623 5.388 1.082 1.404 2.656 2.106 4.721 2.106 1.02 0 1.938-.161 2.752-.485.815-.323 1.434-.733 1.857-1.23.796-.92 1.25-1.79 1.362-2.61l.075-.485h7.632c0 3.232-1.257 5.88-3.77 7.943-2.525 2.075-5.828 3.113-9.908 3.113-4.254 0-7.645-1.224-10.17-3.673-2.538-2.449-3.806-5.804-3.806-10.067 0-4.289 1.268-7.651 3.807-10.087 2.512-2.436 5.902-3.654 10.169-3.654 4.08 0 7.383 1.038 9.908 3.113 2.513 2.063 3.77 4.718 3.77 7.961h-7.632c0-.397-.162-.956-.485-1.678a5.838 5.838 0 00-.97-1.473c-.424-.46-1.043-.85-1.857-1.174-.815-.323-1.727-.485-2.734-.485-2.065 0-3.639.697-4.72 2.088"/></g><path fill="#404042" d="M167.018 47.08a28.871 28.871 0 00-5.609-.557c-.731 0-1.46.036-2.187.092a42.874 42.874 0 006.383-8.674 38.465 38.465 0 00-1.602-4.608 39.715 39.715 0 00-.653-1.447 38.142 38.142 0 01-9.15 13.118 29.947 29.947 0 004.244-15.395c0-2.173-.236-4.29-.676-6.334-.262-.307-.52-.617-.792-.915a39.025 39.025 0 00-7.025-6.078c-.061-.04-.125-.077-.186-.118a25.173 25.173 0 013.878 13.445c0 3.272-.63 6.398-1.765 9.27a24.229 24.229 0 01-11.127-7.593c3.369-5.397 4.78-11.689 4.243-17.84a38.13 38.13 0 00-1.63-.736 38.366 38.366 0 00-3.179-1.173 24.198 24.198 0 01-2.253 15.484 24.31 24.31 0 01-2.123-16.619 37.809 37.809 0 00-1.637-.291 38.967 38.967 0 00-2.914-.321 29.019 29.019 0 00-.625 6.006c0 12.251 7.87 23.14 19.175 27.194-4.485 7.182-12.462 11.975-21.542 11.975-9.132 0-17.15-4.846-21.62-12.097 11.12-4.15 18.828-14.946 18.828-27.072 0-2.023-.207-4.02-.619-5.974-.84.073-1.673.163-2.496.289a39.88 39.88 0 00-1.91.34c-.044.01-.088.022-.132.03a24.309 24.309 0 01-2.104 16.465 24.192 24.192 0 01-2.236-15.285 38.78 38.78 0 00-2.808 1.049c-.676.285-1.337.593-1.991.916-.494 6.073.91 12.273 4.223 17.604a24.24 24.24 0 01-10.796 7.527 25.206 25.206 0 01-1.716-9.148c0-4.936 1.426-9.545 3.877-13.445-.06.04-.124.077-.185.118a38.76 38.76 0 00-4.394 3.45 39.025 39.025 0 00-2.63 2.628c-.272.3-.532.608-.794.915a30.127 30.127 0 00-.675 6.334 29.947 29.947 0 004.243 15.395 38.129 38.129 0 01-9.148-13.118 38.5 38.5 0 00-.655 1.447 38.7 38.7 0 00-1.602 4.608 42.931 42.931 0 006.371 8.66 28.936 28.936 0 00-2.046-.078 28.88 28.88 0 00-5.738.582c-.014.436-.033.873-.033 1.313 0 1.123.06 2.232.153 3.332a24.32 24.32 0 015.616-.665c3.57 0 7.113.8 10.328 2.306.266.167.532.336.802.498 1.305 1.28 3.79 3.804 6.21 6.742-1.854-.779-3.653-1.214-5.266-1.214-.138 6.533 5.883 5.841 10.698 9.491 2.666 5.999 4.352 15.238 4.798 17.875 1.136.159 2.286.278 3.45.337a40.11 40.11 0 003.993 0 39.328 39.328 0 003.451-.337c.449-2.652 2.151-11.982 4.843-17.977 4.808-3.61 10.79-2.943 10.654-9.455-1.59 0-3.359.422-5.183 1.178 2.393-2.894 4.835-5.375 6.124-6.64.145-.086.289-.172.432-.26a24.422 24.422 0 0110.828-2.544 24.3 24.3 0 015.49.635 38.8 38.8 0 00.15-3.302c0-.45-.018-.893-.033-1.337"/><path fill="#fefefe" d="M120.55 76.63s3.227 10.53 6.828 10.53v1.764h-6.828zm15.408 0s-3.227 10.53-6.828 10.53v1.764h6.828zm-5.266 6.623c0 1.056-1.09 1.913-2.43 1.913-1.343 0-2.432-.857-2.432-1.913 0-1.057 1.089-1.913 2.432-1.913 1.34 0 2.43.856 2.43 1.913M107.32 59.417s4.471.638 8.653 4.257L106.6 54.11zm41.903 0s-4.472.638-8.653 4.257l9.373-9.564z"/><path fill="#d0ecf4" d="M128.26.02c26.747 0 48.43 21.664 48.43 48.39 0 26.724-21.683 48.39-48.43 48.39-26.748 0-48.43-21.666-48.43-48.39 0-26.726 21.682-48.39 48.43-48.39m0 91.265c23.694 0 42.901-19.193 42.901-42.87 0-23.677-19.207-42.871-42.901-42.871-23.694 0-42.902 19.194-42.902 42.87 0 23.678 19.208 42.871 42.902 42.871"/></svg>