<svg xmlns="http://www.w3.org/2000/svg" width="287" height="119"><defs><clipPath id="a"><path d="M0 118.997h286.96V.8H0z"/></clipPath></defs><path fill="#130f0d" d="M153.217 45H162v32h-8.783V64.34h-6.432V77H138V45h8.785v13.11h6.432zm24.641 6.96h8.413v25.113h-8.562v-2.718c-.638 1.812-2.117 2.718-4.434 2.718h-.906c-4.468 0-6.699-2.08-6.699-6.242v-12.63c0-4.161 2.231-6.241 6.699-6.241h.906c2.585 0 4.114 1.075 4.583 3.222zm-1.51 18.823c.906 0 1.361-.504 1.361-1.511V59.76c0-1.006-.455-1.51-1.362-1.51h-.857c-.839 0-1.258.37-1.258 1.107v10.317c0 .739.42 1.108 1.258 1.108zM204.15 51.71h.758v7.447h-2.871c-2.117 0-3.175 1.142-3.175 3.423v14.493H190.3v-25.11h8.409v3.873c.272-1.275.876-2.28 1.815-3.02.939-.737 2.15-1.106 3.627-1.106m16.015.25h.906c4.464 0 6.697 2.08 6.697 6.241v12.63c0 4.162-2.233 6.242-6.697 6.242h-.906c-2.32 0-3.798-.906-4.434-2.718v9.21h-8.562V51.96h8.409v3.222c.471-2.147 2-3.222 4.587-3.222m-.959 17.715V59.358c0-.738-.42-1.107-1.26-1.107h-.853c-.909 0-1.362.504-1.362 1.51v9.51c0 1.008.453 1.512 1.362 1.512h.853c.84 0 1.26-.37 1.26-1.108"/><g clip-path="url(#a)"><path fill="#130f0d" d="M231.15 49.439h8.864V43.4h-8.864zm.151 27.63h8.564V51.955H231.3z"/></g><g clip-path="url(#a)"><path fill="#130f0d" d="M252.452 77.068h-8.562V43.4h8.562v19.98l4.734-11.424h8.866l-5.39 12.38 5.39 12.732h-8.916l-4.684-11.726z"/></g><g clip-path="url(#a)"><path fill="#130f0d" d="M278.648 70.428v-2.012c0-.737-.42-1.107-1.26-1.107h-3.073c-4.835 0-7.255-2.064-7.255-6.19V58.2c0-4.16 2.47-6.239 7.404-6.239h4.687c4.937 0 7.404 2.078 7.404 6.24v2.113h-8.162v-1.71c0-.74-.42-1.109-1.258-1.109h-.503c-.84 0-1.26.37-1.26 1.109v2.215c0 .737.42 1.106 1.26 1.106h3.073c2.585 0 4.441.528 5.567 1.584 1.123 1.057 1.685 2.576 1.685 4.556v2.767c0 4.16-2.468 6.24-7.403 6.24h-4.938c-4.936 0-7.405-2.08-7.405-6.24v-2.064h8.311v1.661c0 .739.422 1.108 1.26 1.108h.607c.839 0 1.259-.369 1.259-1.108"/></g><g clip-path="url(#a)"><path fill="#c8dce1" d="M116.186 44.27c8.638 31.468-9.89 63.976-41.389 72.608-31.499 8.63-64.037-9.882-72.675-41.35-8.64-31.47 9.89-63.978 41.388-72.608 31.499-8.633 64.037 9.88 72.676 41.35"/></g><g clip-path="url(#a)"><path fill="#442a1b" d="M107.711 46.244c5.554 5.27.126 8.025.126 8.025s-.122 6.259-4.519 6.756L88.383 62.34l12.151 2.985s-.848 6.911-4.56 7.837c-3.71.928-47.244 13.347-55.122 22.546-7.32 8.552.564 17.48 5.716 21.917-20.793-4.545-38.421-20.168-44.44-42.098-4.22-15.354-1.942-30.949 5.13-43.904l8.14 4.453-5.35-8.552C5.275 16.311 16.242 9.397 27.337 15.857l6.668 6.493a186.433 186.433 0 0112.068-1.598s11.586.858 22.706 3.186c11.12 2.33 13.11 3.906 14.3 6.694 1.191 2.787 2.055 4.39 4.727 5.354 2.674.966 14.35 4.989 19.906 10.258M72.54 39.342a2.5 2.5 0 001.756-3.074 2.51 2.51 0 00-3.083-1.753 2.503 2.503 0 101.327 4.827"/></g><g clip-path="url(#a)"><path fill="#442a1b" d="M107.711 46.244c5.554 5.27.126 8.025.126 8.025s-.122 6.259-4.519 6.756L88.383 62.34l12.151 2.985s-.848 6.911-4.56 7.837c-3.71.928-47.244 13.347-55.122 22.546-7.32 8.552.564 17.48 5.716 21.917-20.793-4.545-38.421-20.168-44.44-42.098-4.22-15.354-1.942-30.949 5.13-43.904l8.14 4.453-5.35-8.552C5.275 16.311 16.242 9.397 27.337 15.857l6.668 6.493a186.433 186.433 0 0112.068-1.598s11.586.858 22.706 3.186c11.12 2.33 13.11 3.906 14.3 6.694 1.191 2.787 2.055 4.39 4.727 5.354 2.674.966 14.35 4.989 19.906 10.258M72.54 39.342a2.5 2.5 0 001.756-3.074 2.51 2.51 0 00-3.083-1.753 2.503 2.503 0 101.327 4.827"/></g><g clip-path="url(#a)"><path fill="#25140e" d="M34.005 22.357a187.708 187.708 0 0112.068-1.596s.503.037 1.369.113l-6.848-6.557c-6.3-3.671-12.559-3.021-15.924.273.884.352 1.772.755 2.667 1.276z"/></g></svg>