<svg xmlns="http://www.w3.org/2000/svg" width="300" height="96"><defs><clipPath id="a"><path d="M0 9.62h95.899v86.41H0z"/></clipPath><clipPath id="b"><path d="M56.8 82.61h26.24v13.416H56.8z"/></clipPath><clipPath id="c"><path d="M0 96.033h299.951V.22H0z"/></clipPath></defs><path fill="#c8dce1" d="M0 0v61l39.9-39.703 7.746 7.71L67.374 9.374 96 37.861V0z"/><path fill="#231f20" d="M30.84 56.11a.77.77 0 100-1.54.77.77 0 000 1.54"/><g clip-path="url(#a)"><path fill="#495260" d="M67.303 9.62L47.596 29.31l-7.739-7.733L0 61.4v34.63h44.48c1.36-4.225 2.984-11.789.312-18.766C42.048 70.03 32.99 66.46 25.137 65.309c-4.663-.684-6.34-3.552-6.283-3.999 0 0-1.374-.58-1.502-1.784a1.676 1.676 0 01.002-.447l.87-.424 7.004-3.418s1.073-.253 2.144-2.89c.6-1.477 4.452-3.13 8.523-3.718 0 0-.081-3.382 2.837-3.59 1.718-.122 3.065 1.244 2.962 2.996-.085 1.444-.868 3.084-1.562 4.137l3.286-3.079c6.55 2.356 13.645 4.207 17.919 3.123 2.413-.613 4.9-1.237 7.417-1.769 9.335-1.97 19.071-2.671 26.933 3.206.073.054.14.117.212.172V38.19z"/></g><g clip-path="url(#b)"><path fill="#495260" d="M75.15 82.61c-11.457 0-18.35 13.416-18.35 13.416h25.944s2.6-13.416-7.594-13.416"/></g><path fill="#231f20" d="M142.414 31.3h7.891v34.495h-7.891v-13.7h-10.852v13.7h-7.892V31.3h7.892v13.207h10.852zm32.703 9.85h7.399v24.64h-7.4v-2.316c-1.742 2.004-4.191 3.006-7.348 3.006-3.255 0-6.035-1.257-8.336-3.77-2.302-2.513-3.452-5.593-3.452-9.24 0-3.647 1.15-6.726 3.452-9.24 2.301-2.513 5.081-3.77 8.336-3.77 3.157 0 5.606 1.003 7.349 3.007zm-5.869 18.332c1.742 0 3.156-.542 4.242-1.626 1.084-1.084 1.627-2.546 1.627-4.385 0-1.84-.543-3.302-1.627-4.387-1.086-1.084-2.5-1.626-4.242-1.626-1.744 0-3.157.542-4.242 1.626-1.085 1.085-1.628 2.547-1.628 4.387 0 1.839.543 3.3 1.628 4.385 1.085 1.084 2.498 1.626 4.242 1.626zm27.321-13.942c.46-1.578 1.388-2.786 2.786-3.623 1.398-.838 2.935-1.257 4.612-1.257v8.378c-1.809-.296-3.494.009-5.055.912-1.562.904-2.343 2.472-2.343 4.705v11.138h-7.399v-24.64h7.399zm26.839-5.08c3.255 0 6.034 1.257 8.336 3.77 2.3 2.514 3.452 5.593 3.452 9.24 0 3.647-1.152 6.727-3.453 9.24s-5.08 3.77-8.335 3.77c-3.158 0-5.607-1.002-7.349-3.006v12.172h-7.399V41.15h7.399v2.316c1.742-2.004 4.191-3.007 7.349-3.007m-5.7 17.396c1.103 1.084 2.508 1.626 4.22 1.626 1.71 0 3.117-.542 4.22-1.626 1.1-1.084 1.653-2.546 1.653-4.385 0-1.84-.552-3.302-1.654-4.387-1.102-1.084-2.51-1.626-4.219-1.626-1.712 0-3.117.542-4.22 1.626-1.102 1.085-1.652 2.547-1.652 4.387 0 1.839.55 3.3 1.652 4.385"/><g clip-path="url(#c)"><path fill="#231f20" d="M247.45 37.69c.872-.87 1.308-1.915 1.308-3.131 0-1.217-.436-2.26-1.307-3.132-.872-.871-1.916-1.307-3.132-1.307-1.218 0-2.261.436-3.133 1.307-.871.872-1.306 1.915-1.306 3.132 0 1.216.435 2.26 1.306 3.131.872.872 1.915 1.307 3.133 1.307 1.216 0 2.26-.435 3.132-1.307zm-6.832 28.108h7.4V41.156h-7.4z"/></g><g clip-path="url(#c)"><path fill="#231f20" d="M278.346 65.795h-8.386l-7.891-10.891v10.891h-7.399V31.3h7.399v20.648l7.398-10.792h8.632l-8.977 12.32z"/></g><g clip-path="url(#c)"><path fill="#231f20" d="M287.82 48.344c0 .493.42.895 1.258 1.208.838.312 1.85.624 3.033.936a27.41 27.41 0 013.552 1.208c1.183.492 2.195 1.305 3.033 2.438.839 1.134 1.258 2.556 1.258 4.263 0 2.661-.987 4.674-2.96 6.037-1.972 1.362-4.406 2.045-7.3 2.045-5.195 0-8.73-1.954-10.604-5.864l6.412-3.647c.658 1.94 2.055 2.908 4.193 2.908 1.776 0 2.663-.51 2.663-1.528 0-.493-.42-.903-1.257-1.232-.84-.328-1.85-.648-3.034-.961a25.049 25.049 0 01-3.55-1.232c-1.185-.509-2.196-1.306-3.034-2.39-.84-1.084-1.258-2.415-1.258-3.992 0-2.562.928-4.55 2.786-5.963 1.858-1.41 4.15-2.118 6.88-2.118 2.039 0 3.897.451 5.575 1.355 1.677.904 3.024 2.21 4.044 3.918l-6.313 3.4c-.79-1.446-1.891-2.168-3.305-2.168-1.38 0-2.072.46-2.072 1.38"/></g></svg>